<?xml version="1.0" encoding="UTF-8"?>
<!DOCTYPE svg PUBLIC "-//W3C//DTD SVG 1.1//EN" "http://www.w3.org/Graphics/SVG/1.1/DTD/svg11.dtd">
<!-- Creator: CorelDRAW X7 -->
<svg xmlns="http://www.w3.org/2000/svg" xml:space="preserve" width="200mm" height="50mm" version="1.1" style="shape-rendering:geometricPrecision; text-rendering:geometricPrecision; image-rendering:optimizeQuality; fill-rule:evenodd; clip-rule:evenodd" viewBox="0 0 20000 5000" xmlns:xlink="http://www.w3.org/1999/xlink">
 <defs>
  <style type="text/css">
   <![CDATA[
    .fil0 {fill:#548235;fill-rule:nonzero}
    .fil1 {fill:#F65801;fill-rule:nonzero}
   ]]>
  </style>
 </defs>
 <g id="Capa_x0020_1">
  <metadata id="CorelCorpID_0Corel-Layer"/>
  <path class="fil0" d="M5722 4240l0 -2523c0,-379 -79,-621 -277,-870 -231,-287 -604,-462 -970,-462 -689,0 -1248,570 -1248,1275l0 243 -243 0 243 880 0 1457 920 0 0 -1457 655 0 0 1457 920 0zm-920 -2337l-655 0 0 -215c0,-259 119,-412 328,-412 214,0 327,141 327,412l0 215zm4064 0l-875 0 0 1524c-564,-45 -982,-497 -982,-1073 0,-598 480,-1078 1089,-1078 249,0 480,62 768,204l0 -932c-260,-113 -502,-163 -790,-163 -1107,0 -1987,874 -1987,1975 0,1073 897,1970 1964,1970 282,0 548,-56 813,-175l0 -2252zm451 2337l920 0 0 -1084 655 1084 1095 0 -824 -1169c249,-141 373,-248 503,-434 146,-226 237,-520 237,-785 0,-350 -153,-717 -401,-965 -305,-299 -621,-412 -1174,-412l-1011 0 0 3765zm920 -1852l0 -1033 221 0c299,0 525,220 525,508 0,294 -226,525 -520,525l-226 0zm3850 -2003c-1089,0 -1964,880 -1964,1969 0,1090 880,1976 1964,1976 1072,0 1976,-886 1976,-1942 0,-1123 -870,-2003 -1976,-2003zm6 891c587,0 1050,486 1050,1095 0,576 -486,1067 -1050,1067 -576,0 -1050,-491 -1050,-1084 0,-604 463,-1078 1050,-1078z"/>
  <polygon class="fil1" points="16221,1988 16221,2727 16813,2727 16813,3353 17620,3353 17620,2727 18213,2727 18213,1988 17620,1988 17620,1361 16813,1361 16813,1988 "/>
 </g>
</svg>